<svg height="1182" width="720" xmlns="http://www.w3.org/2000/svg">
<rect height="1182" fill="#555" width="720"></rect>
<text fill="#7f7" font-family="Courier New" font-size="12" xml:space="preserve">
<tspan x="10" y="26">17 megabytes installed</tspan>
<tspan x="10" y="42"></tspan>
<tspan x="10" y="58">node_modules</tspan>
<tspan x="10" y="74">├─┬ enzyme@2.8.2 </tspan>
<tspan x="10" y="90">│ ├─┬ cheerio@0.22.0 </tspan>
<tspan x="10" y="106">│ │ ├─┬ css-select@1.2.0 </tspan>
<tspan x="10" y="122">│ │ │ ├── boolbase@1.0.0 </tspan>
<tspan x="10" y="138">│ │ │ ├── css-what@2.1.0 </tspan>
<tspan x="10" y="154">│ │ │ ├── domutils@1.5.1 </tspan>
<tspan x="10" y="170">│ │ │ └── nth-check@1.0.1 </tspan>
<tspan x="10" y="186">│ │ ├─┬ dom-serializer@0.1.0 </tspan>
<tspan x="10" y="202">│ │ │ └── domelementtype@1.1.3 </tspan>
<tspan x="10" y="218">│ │ ├── entities@1.1.1 </tspan>
<tspan x="10" y="234">│ │ ├─┬ htmlparser2@3.9.2 </tspan>
<tspan x="10" y="250">│ │ │ ├── domelementtype@1.3.0 </tspan>
<tspan x="10" y="266">│ │ │ ├── domhandler@2.3.0 </tspan>
<tspan x="10" y="282">│ │ │ ├── inherits@2.0.3 </tspan>
<tspan x="10" y="298">│ │ │ └─┬ readable-stream@2.2.9 </tspan>
<tspan x="10" y="314">│ │ │   ├── buffer-shims@1.0.0 </tspan>
<tspan x="10" y="330">│ │ │   ├── core-util-is@1.0.2 </tspan>
<tspan x="10" y="346">│ │ │   ├── isarray@1.0.0 </tspan>
<tspan x="10" y="362">│ │ │   ├── process-nextick-args@1.0.7 </tspan>
<tspan x="10" y="378">│ │ │   ├── string_decoder@1.0.0 </tspan>
<tspan x="10" y="394">│ │ │   └── util-deprecate@1.0.2 </tspan>
<tspan x="10" y="410">│ │ ├── lodash.assignin@4.2.0 </tspan>
<tspan x="10" y="426">│ │ ├── lodash.bind@4.2.1 </tspan>
<tspan x="10" y="442">│ │ ├── lodash.defaults@4.2.0 </tspan>
<tspan x="10" y="458">│ │ ├── lodash.filter@4.6.0 </tspan>
<tspan x="10" y="474">│ │ ├── lodash.flatten@4.4.0 </tspan>
<tspan x="10" y="490">│ │ ├── lodash.foreach@4.5.0 </tspan>
<tspan x="10" y="506">│ │ ├── lodash.map@4.6.0 </tspan>
<tspan x="10" y="522">│ │ ├── lodash.merge@4.6.0 </tspan>
<tspan x="10" y="538">│ │ ├── lodash.pick@4.4.0 </tspan>
<tspan x="10" y="554">│ │ ├── lodash.reduce@4.6.0 </tspan>
<tspan x="10" y="570">│ │ ├── lodash.reject@4.6.0 </tspan>
<tspan x="10" y="586">│ │ └── lodash.some@4.6.0 </tspan>
<tspan x="10" y="602">│ ├─┬ function.prototype.name@1.0.0 </tspan>
<tspan x="10" y="618">│ │ ├─┬ define-properties@1.1.2 </tspan>
<tspan x="10" y="634">│ │ │ └── foreach@2.0.5 </tspan>
<tspan x="10" y="650">│ │ ├── function-bind@1.1.0 </tspan>
<tspan x="10" y="666">│ │ └── is-callable@1.1.3 </tspan>
<tspan x="10" y="682">│ ├── is-subset@0.1.1 </tspan>
<tspan x="10" y="698">│ ├── lodash@4.17.4 </tspan>
<tspan x="10" y="714">│ ├── object-is@1.0.1 </tspan>
<tspan x="10" y="730">│ ├─┬ object.assign@4.0.4 </tspan>
<tspan x="10" y="746">│ │ └── object-keys@1.0.11 </tspan>
<tspan x="10" y="762">│ ├─┬ object.entries@1.0.4 </tspan>
<tspan x="10" y="778">│ │ ├─┬ es-abstract@1.7.0 </tspan>
<tspan x="10" y="794">│ │ │ ├─┬ es-to-primitive@1.1.1 </tspan>
<tspan x="10" y="810">│ │ │ │ ├── is-date-object@1.0.1 </tspan>
<tspan x="10" y="826">│ │ │ │ └── is-symbol@1.0.1 </tspan>
<tspan x="10" y="842">│ │ │ └── is-regex@1.0.4 </tspan>
<tspan x="10" y="858">│ │ └── has@1.0.1 </tspan>
<tspan x="10" y="874">│ ├── object.values@1.0.4 </tspan>
<tspan x="10" y="890">│ ├─┬ prop-types@15.5.8 </tspan>
<tspan x="10" y="906">│ │ └─┬ fbjs@0.8.12 </tspan>
<tspan x="10" y="922">│ │   ├── core-js@1.2.7 </tspan>
<tspan x="10" y="938">│ │   ├─┬ isomorphic-fetch@2.2.1 </tspan>
<tspan x="10" y="954">│ │   │ ├─┬ node-fetch@1.6.3 </tspan>
<tspan x="10" y="970">│ │   │ │ ├─┬ encoding@0.1.12 </tspan>
<tspan x="10" y="986">│ │   │ │ │ └── iconv-lite@0.4.15 </tspan>
<tspan x="10" y="1002">│ │   │ │ └── is-stream@1.1.0 </tspan>
<tspan x="10" y="1018">│ │   │ └── whatwg-fetch@2.0.3 </tspan>
<tspan x="10" y="1034">│ │   ├─┬ loose-envify@1.3.1 </tspan>
<tspan x="10" y="1050">│ │   │ └── js-tokens@3.0.1 </tspan>
<tspan x="10" y="1066">│ │   ├── object-assign@4.1.1 </tspan>
<tspan x="10" y="1082">│ │   ├─┬ promise@7.1.1 </tspan>
<tspan x="10" y="1098">│ │   │ └── asap@2.0.5 </tspan>
<tspan x="10" y="1114">│ │   ├── setimmediate@1.0.5 </tspan>
<tspan x="10" y="1130">│ │   └── ua-parser-js@0.7.12 </tspan>
<tspan x="10" y="1146">│ └── uuid@2.0.3 </tspan>
<tspan x="10" y="1162">└── UNMET PEER DEPENDENCY react@0.13.x || 0.14.x || ^15.0.0-0 || 15.x</tspan>
</text>
</svg>
